<svg height="50" xmlns="http://www.w3.org/2000/svg" preserveAspectRatio="xMidYMid meet" viewBox="0 0 535 662"><defs><linearGradient x1=".0046285%" y1="49.9990596%" x2="100%" y2="49.9990596%" id="a"><stop stop-color="#00B8C4" offset="0%"/><stop stop-color="#00EFFF" offset="100%"/></linearGradient><linearGradient x1="45.9907807%" y1="49.9990596%" x2="54.0095905%" y2="50%" id="b"><stop stop-color="#00EFFF" offset="0%"/><stop stop-color="#49F4FF" offset="100%"/></linearGradient></defs><g fill-rule="nonzero" fill="none"><path fill="#49F4FF" d="M269.837499 13.21108293V570.333971h-4.817656V13.21108293z"/><path d="M318.86 0v566.03c-3.844442-.050509-7.567531-1.358754-10.604247-3.726193L164.907538 441.074781c-3.862672-3.5859-6.002728-8.666372-5.874753-13.946608V126.903485c-.151459-5.238578 2.029142-10.272662 5.948983-13.733682L308.754152 3.84330186C311.572796 1.4174205 315.147861.057806 318.86 0z" fill="url(#a)" transform="matrix(-1 0 0 1 585.420388 10)"/><path d="M159.834613 0v564.424459c-3.844442-.050366-7.567531-1.3549-10.604247-3.715624L5.88215094 439.823675c-3.86267214-3.575729-6.00272789-8.641791-5.87475299-13.907049V126.543524c-.15145879-5.223719 2.02914185-10.243523 5.94898272-13.694727L149.728765 3.83240035C152.547408 1.41339999 156.122474.05764204 159.834613 0z" fill="url(#b)" transform="translate(107.535 10)"/><path d="M254.678256 166.28707c7.584338-5.796093 18.048671-5.796093 25.63301 0l.216329.169942 84.05867 67.870852c.199191.059424.4189.029755.59912-.090864l.608401-.377196 86.002782-49.259614.184577-.120066c12.353281-7.92333 30.451578-.705512 31.105614 14.381626l.018241.846224-.00572 268.348729c-.179637 5.450386-2.71502 10.546152-6.702752 13.745961L281.421239 648.133123l-.931127.509294c-8.526581 4.663738-19.481936 4.482091-26.899022-.627014l-.43858-.302107L58.07006262 481.217948c-3.75033621-3.374584-5.99011153-8.185979-6.17506262-13.635711V199.707974c0-15.373044 17.9084819-23.060094 30.4560767-15.661672l.8521982.533053 86.0446361 49.280325.608618.37732c.152066.101776.332247.138799.454093.151744l.116378.004256zM365.126 416.675l-84.419086 70.418581-.343256.274097c-.942813.720516-1.930131 1.351463-2.950889 1.892843L277.403 624.306l177.871-151.733-90.148-55.898zm-195.232-.014l-90.13 55.818 177.048 151.104.009332-134.804735c-.59685-.353129-1.180692-.738107-1.749181-1.154934l-.341503-.255653-.341382-.272535L169.894 416.661zm97.481939-233.903792h-.067059l-84.239235 68.098365c-.118178.090042-.237064.178689-.356637.26594l-1.681605 1.358783-.004118 146.465183 86.132898 71.805401.174727.094429c.137682.046052.286805.046052.424486 0l.158506-.090262 86.099954-71.805401V252.44696L352.56 251.27l-.818626-.595602-83.860534-67.753501-.170376-.092972c-.130762-.051491-.259124-.070717-.334525-.070717zm195.135766 19.648488l-86.392335 49.478721-.420293.267738c-.358409.216283-.721475.420963-1.08872.614036L374.608 398.118l87.903 54.507.000705-250.219304zm-390.0276849-.025002L72.475 452.565l87.966-54.477.001948-145.315645c-.416694-.218855-.828069-.45261-1.233392-.701286L158.851 251.846l-86.3669799-49.465306z" fill="#6800FF"/></g></svg>
